<?xml version="1.0" encoding="utf-8"?>
<!-- Generator: Adobe Illustrator 21.0.0, SVG Export Plug-In . SVG Version: 6.00 Build 0)  -->
<svg version="1.1" id="Laag_1" xmlns="http://www.w3.org/2000/svg" xmlns:xlink="http://www.w3.org/1999/xlink" x="0px" y="0px"
	 viewBox="0 0 1000 500" style="enable-background:new 0 0 1000 500;" xml:space="preserve">
<style type="text/css">
	.st0{fill:#FFFFFF;}
</style>
<g>
	<g>
		<polygon class="st0" points="587.1,282.5 674.6,282.5 674.6,195 587.5,195 		"/>
		<rect x="587.1" y="20" class="st0" width="87.5" height="87.5"/>
		<path class="st0" d="M367.2,17.8c-73.1,0-132.4,59.3-132.4,132.4c0,73.1,59.3,132.4,132.4,132.4h132.4V150.2
			C499.6,77.1,440.3,17.8,367.2,17.8z M411.4,194.3h-44.1c0,0,0,0,0,0c-24.4,0-44.1-19.8-44.1-44.1c0-24.4,19.8-44.1,44.1-44.1
			c24.4,0,44.1,19.8,44.1,44.1V194.3z"/>
		<g>
			<path class="st0" d="M61.8,425.7H50.7c-1.1,0-2-0.9-2-2v-1.6c-3.9,2.8-7.9,4.5-13.8,4.5c-8.7,0-17-4.2-17-17.1v-0.9
				c0-11.7,7.5-16.8,24.5-16.8h5.4v-3.6c0-5.7-2.8-6.9-7.5-6.9c-6.4,0-13.4,0.4-16.5,0.7h-0.5c-1,0-1.8-0.5-1.8-1.8v-8.1
				c0-1.1,0.7-1.9,1.9-2.2c3.7-0.9,10.7-2.1,17.2-2.1c14.3,0,23.3,5.8,23.3,20.3v35.6C63.8,424.8,62.9,425.7,61.8,425.7z M48,401.3
				h-5.7c-7,0-8.8,2.4-8.8,7.3v0.9c0,4.2,2.1,5,6.3,5c3,0,5.8-1,8.2-2.2V401.3z"/>
			<path class="st0" d="M107.5,381.1h-0.8c-4.9,0-9.2,1.5-12.8,3.5v38.9c0,1.1-0.9,2.1-2,2.1H79.8c-1.1,0-2.1-1-2.1-2.1v-53
				c0-1.1,0.9-2,2-2h11.9c1.1,0,2,0.9,2,2v2c3.7-3.1,8.7-4.8,13.4-4.8c1.1,0,2,0.9,2,2v9.5C109,380.1,108.4,381.1,107.5,381.1z"/>
			<path class="st0" d="M151.6,425.8c-3,0.5-5,0.8-7.9,0.8c-11,0-16.7-2.9-16.7-17v-28.9l-8-1.3c-1.1-0.2-2.1-1-2.1-2.1v-6.6
				c0-1.1,1-2.1,2.1-2.1h8v-8.2c0-1.1,0.9-1.8,2-2l12.2-2.1c0.1,0,0.2,0,0.3,0c1,0,1.8,0.7,1.8,1.7v10.6h8.2c1.1,0,2,0.9,2,2v8.1
				c0,1.1-0.9,2-2,2h-8.2v29c0,4,0.3,4.7,3.3,4.7h4.9c1.3,0,2.1,0.6,2.1,1.7v7.8C153.5,424.8,152.8,425.6,151.6,425.8z"/>
			<path class="st0" d="M210.8,402.1H179v0.2c0,5.7,2.4,10.9,10.3,10.9c6.3,0,15.1-0.5,19.1-0.9c0.1,0,0.2,0,0.3,0
				c1.1,0,1.9,0.5,1.9,1.6v7.6c0,1.6-0.4,2.3-2.1,2.7c-6.4,1.6-11.8,2.4-20.4,2.4c-12.1,0-25-6.4-25-25.6v-7
				c0-16,9.4-26.2,25.2-26.2c16.3,0,24.6,11.2,24.6,26.2v5.8C212.9,401.3,212.1,402.1,210.8,402.1z M197.1,391.8
				c0-7.4-3.4-11.1-9-11.1c-5.5,0-9.2,3.8-9.2,11.1v0.4h18.1V391.8z"/>
			<path class="st0" d="M273.9,370.9l-12.6,45.2c-2.5,8.9-8.6,10.5-14.4,10.5c-5.9,0-11.9-1.6-14.3-10.5l-12.5-45.2
				c-0.1-0.2-0.1-0.4-0.1-0.6c0-1,0.7-1.7,1.6-1.7h13.1c1,0,1.8,0.9,2.1,2.1l8.6,39c0.3,1.5,0.8,2.1,1.5,2.1c0.7,0,1.3-0.6,1.6-2.1
				l8.6-39c0.3-1.2,1.1-2.1,2.1-2.1h13.1c0.9,0,1.7,0.7,1.7,1.7C274,370.5,274,370.7,273.9,370.9z"/>
			<path class="st0" d="M328.7,402.1h-31.8v0.2c0,5.7,2.4,10.9,10.3,10.9c6.3,0,15.1-0.5,19.1-0.9c0.1,0,0.2,0,0.3,0
				c1.1,0,1.9,0.5,1.9,1.6v7.6c0,1.6-0.4,2.3-2.1,2.7c-6.4,1.6-11.8,2.4-20.4,2.4c-12.1,0-25-6.4-25-25.6v-7
				c0-16,9.4-26.2,25.2-26.2c16.3,0,24.6,11.2,24.6,26.2v5.8C330.8,401.3,330,402.1,328.7,402.1z M315.1,391.8
				c0-7.4-3.4-11.1-9-11.1c-5.5,0-9.2,3.8-9.2,11.1v0.4h18.1V391.8z"/>
			<path class="st0" d="M357.4,425.7h-12.2c-1.1,0-2.1-1-2.1-2.1v-72.3c0-1.1,1-2,2.1-2h12.2c1.1,0,1.9,0.9,1.9,2v72.3
				C359.3,424.7,358.5,425.7,357.4,425.7z"/>
			<path class="st0" d="M417.5,424c-5.7,1.4-13.5,2.6-21.2,2.6c-16.1,0-25-9.4-25-25.5v-7.8c0-15.6,8.2-25.5,25-25.5
				c2,0,5.3,0.3,8.2,0.7v-17.2c0-1.1,0.9-2,2-2h12.1c1.1,0,2.1,0.9,2.1,2v69.8C420.6,422.7,420.2,423.4,417.5,424z M404.5,381.6
				c-2.4-0.3-5.8-0.5-8.2-0.5c-7.1,0-8.9,5.2-8.9,12.2v7.8c0,7.1,1.8,12.3,8.9,12.3c3.3,0,6.3-0.3,8.2-0.6V381.6z"/>
			<path class="st0" d="M480.8,402.1H449v0.2c0,5.7,2.4,10.9,10.3,10.9c6.3,0,15.1-0.5,19.1-0.9c0.1,0,0.2,0,0.3,0
				c1.1,0,1.9,0.5,1.9,1.6v7.6c0,1.6-0.4,2.3-2.1,2.7c-6.4,1.6-11.8,2.4-20.4,2.4c-12.1,0-25-6.4-25-25.6v-7
				c0-16,9.4-26.2,25.2-26.2c16.3,0,24.6,11.2,24.6,26.2v5.8C482.9,401.3,482.1,402.1,480.8,402.1z M467.1,391.8
				c0-7.4-3.4-11.1-9-11.1c-5.5,0-9.2,3.8-9.2,11.1v0.4h18.1V391.8z"/>
		</g>
		<g>
			<path class="st0" d="M540.9,425.7h-4.8c-1.1,0-2-0.9-2-2v-32.8c0-10-4.2-13-10.7-13c-3.1,0-9.4,0.8-13.7,2.8v43c0,1-0.9,2-2,2
				h-4.9c-1,0-1.9-0.9-1.9-2v-70.9c0-1.1,0.8-2,1.9-2h5c1.1,0,1.9,0.9,1.9,2v20.5c4.8-2.1,11-3.1,15.2-3.1
				c10.6,0,17.9,6.1,17.9,20.7v32.8C542.8,424.8,541.9,425.7,540.9,425.7z"/>
			<path class="st0" d="M576.4,426.4c-14.6,0-22.1-9.7-22.1-24.3v-7.6c0-14.6,7.5-24.3,22.1-24.3c14.6,0,22.2,9.7,22.2,24.3v7.6
				C598.7,416.7,591.1,426.4,576.4,426.4z M589.9,394.5c0-10.2-4.1-16.6-13.4-16.6c-9.3,0-13.3,6.4-13.3,16.6v7.6
				c0,10.2,4,16.6,13.3,16.6c9.3,0,13.4-6.4,13.4-16.6V394.5z"/>
			<path class="st0" d="M654.2,377.5l-3.6,0.7c1.8,1.9,3.4,4.9,3.4,10.3v0.8c0,11-6.8,17-22.1,17c-5.3,0-8.7-0.8-11.6-2
				c-1.7,0.8-2.5,1.9-2.5,3.4c0,1.7,0.8,2.6,3.1,3.2l14.8,3.8c9.8,2.5,19.1,5.3,19.1,14.6v0.8c0,9.6-6.4,15.4-22.7,15.4
				c-15.7,0-22.9-6.1-22.9-15.8v-0.9c0-5.6,3-10.2,6.3-12.7l-0.7-0.3c-3.2-1.4-4.6-4.7-4.6-7.8V408c0-2.7,1.3-5.6,4.1-7.2
				c-3.1-2.9-4.6-6.5-4.6-11.6v-0.8c0-8.9,5-17.6,22.1-17.6h21.8c1.2,0,2.3,1,2.3,2.2v2.6C656,376.9,655.3,377.3,654.2,377.5z
				 M646.1,429.3c0-3.9-3.2-5.5-12.1-7.8l-11.3-2.9c-2.9,2.5-4.9,5-4.9,10.2v0.9c0,5.6,3.3,9.1,14.3,9.1c11.4,0,13.9-3.2,13.9-8.7
				V429.3z M645.3,388.5c0-6-2.7-10.7-13.4-10.7c-11.2,0-13.4,5.1-13.4,10.7v0.8c0,4.4,2,10.2,13.4,10.2c10.8,0,13.4-4.2,13.4-10.2
				V388.5z"/>
			<path class="st0" d="M706.7,401.1h-33.4v1.4c0,11.9,4.7,16.2,13.8,16.2c5.8,0,13.1-0.4,17.7-1.1c0.2,0,0.3,0,0.5,0
				c0.8,0,1.6,0.4,1.6,1.4v3.4c0,1.3-0.4,2-2,2.3c-5.7,1.1-11.2,1.7-17.8,1.7c-11.5,0-22.6-5.4-22.6-23.9v-9
				c0-14.2,7.9-23.3,22.1-23.3c14.5,0,21.9,9.2,21.9,23.3v5.4C708.6,400.2,707.9,401.1,706.7,401.1z M699.7,393.5
				c0-11.3-4.3-15.6-13-15.6c-8.6,0-13.3,4.9-13.3,15.6v0.9h26.4V393.5z"/>
			<path class="st0" d="M736.6,426.4c-3.7,0-10.9-0.3-15.7-1.5c-1.3-0.3-2.1-0.9-2.1-2v-3.5c0-0.9,0.8-1.5,1.8-1.5
				c0.2,0,0.3,0,0.4,0c4.8,0.6,12.1,1.1,15.6,1.1c6.5,0,9.9-1.7,9.9-7.1c0-3-1.8-4.9-7.5-8.3l-10.1-6c-6.1-3.7-10.2-8-10.2-14.2
				c0-10.4,7.8-13.2,18-13.2c5.6,0,10.9,0.5,15.5,1.3c1.3,0.2,1.9,0.9,1.9,2v3.3c0,1.2-0.7,1.7-1.7,1.7c-0.1,0-0.2,0-0.3,0
				c-3.5-0.3-9.9-0.8-15.4-0.8c-5.6,0-9.3,0.7-9.3,5.8c0,3,2.3,4.9,6.9,7.6l9.9,5.9c8.3,4.9,11,9.2,11,15
				C755.2,422.1,747.7,426.4,736.6,426.4z"/>
			<path class="st0" d="M798.8,425.3c-3.3,0.6-7.8,1.1-12.5,1.1c-13.5,0-21.2-9.6-21.2-24.2v-7.8c0-14.6,7.6-24.2,21.2-24.2
				c4.6,0,9.2,0.5,12.5,1.1c1.6,0.3,2,0.8,2,2.2v3.6c0,1-0.8,1.5-1.7,1.5c-0.2,0-0.3,0-0.4,0c-4.4-0.5-7.5-0.7-12.4-0.7
				c-8,0-12.5,5.3-12.5,16.5v7.8c0,11.2,4.4,16.5,12.5,16.5c4.9,0,8-0.2,12.4-0.7c0.1,0,0.2,0,0.4,0c0.9,0,1.7,0.5,1.7,1.5v3.6
				C800.8,424.4,800.4,425,798.8,425.3z"/>
			<path class="st0" d="M851.9,425.7h-4.8c-1.1,0-2-0.9-2-2v-32.8c0-10-4.2-13-10.7-13c-3.1,0-9.4,0.8-13.7,2.8v43c0,1-0.9,2-2,2
				h-4.9c-1,0-1.9-0.9-1.9-2v-70.9c0-1.1,0.8-2,1.9-2h5c1.1,0,1.9,0.9,1.9,2v20.5c4.8-2.1,11-3.1,15.2-3.1
				c10.6,0,17.9,6.1,17.9,20.7v32.8C853.9,424.8,853,425.7,851.9,425.7z"/>
			<path class="st0" d="M886.5,426.4c-14.6,0-22.1-9.7-22.1-24.3v-7.6c0-14.6,7.5-24.3,22.1-24.3c14.6,0,22.2,9.7,22.2,24.3v7.6
				C908.7,416.7,901.1,426.4,886.5,426.4z M899.9,394.5c0-10.2-4.1-16.6-13.4-16.6c-9.3,0-13.3,6.4-13.3,16.6v7.6
				c0,10.2,4,16.6,13.3,16.6c9.3,0,13.4-6.4,13.4-16.6V394.5z"/>
			<path class="st0" d="M940.6,426.4c-14.6,0-22.1-9.7-22.1-24.3v-7.6c0-14.6,7.5-24.3,22.1-24.3s22.2,9.7,22.2,24.3v7.6
				C962.8,416.7,955.2,426.4,940.6,426.4z M954,394.5c0-10.2-4.1-16.6-13.4-16.6c-9.3,0-13.3,6.4-13.3,16.6v7.6
				c0,10.2,4,16.6,13.3,16.6c9.3,0,13.4-6.4,13.4-16.6V394.5z"/>
			<path class="st0" d="M980,425.7h-5.2c-1,0-1.8-0.9-1.8-2v-71c0-1,0.7-1.9,1.8-1.9h5.2c1,0,1.8,0.8,1.8,1.9v71
				C981.8,424.7,981.1,425.7,980,425.7z"/>
		</g>
		<g>
			<g>
				<path class="st0" d="M509.7,474.9c-0.7,0.2-2.6,0.3-3.7,0.3c-2.9,0-5.1-0.8-5.1-4.5v-11.6c0-0.2,0.2-0.4,0.4-0.4h2.2
					c0.2,0,0.4,0.2,0.4,0.4v11.6c0,1.5,0.4,1.9,1.7,1.9h4c0.2,0,0.4,0.2,0.4,0.4v1.4C510.1,474.7,510,474.8,509.7,474.9z"/>
				<path class="st0" d="M515.8,475h-2.2c-0.2,0-0.4-0.2-0.4-0.4V459c0-0.2,0.2-0.4,0.4-0.4h2.2c0.2,0,0.4,0.2,0.4,0.4v15.5
					C516.3,474.8,516.1,475,515.8,475z"/>
				<path class="st0" d="M525.4,475.2c-1.6,0-3.7-0.2-4.3-0.3c-0.4-0.1-0.6-0.2-0.6-0.7v-14.8c0-0.4,0.2-0.6,0.6-0.7
					c0.7-0.1,2.8-0.3,4.3-0.3c4.4,0,6.9,2.4,6.9,6.7v3.2C532.3,472.8,529.8,475.2,525.4,475.2z M529.3,465.2c0-3.3-1.7-4.2-3.9-4.2
					c-0.8,0-1.4,0-1.8,0.1v11.4c0.5,0,1,0.1,1.8,0.1c2.2,0,3.9-0.9,3.9-4.2V465.2z"/>
				<path class="st0" d="M554.8,459.1l-3.6,13.8c-0.5,2.1-2.1,2.2-3,2.2c-0.9,0-2.5-0.2-3-2.2l-3.6-13.8c0,0,0-0.1,0-0.1
					c0-0.2,0.2-0.4,0.4-0.4h2.3c0.2,0,0.4,0.2,0.4,0.4l3.2,13.3c0.1,0.3,0.1,0.4,0.3,0.4c0.2,0,0.3-0.1,0.3-0.4l3.2-13.3
					c0-0.2,0.2-0.4,0.4-0.4h2.3c0.2,0,0.4,0.2,0.4,0.4C554.8,459,554.8,459.1,554.8,459.1z"/>
				<path class="st0" d="M569.7,475h-2.3c-0.2,0-0.4-0.2-0.4-0.4l-1-4.2h-5l-1,4.2c0,0.2-0.2,0.4-0.4,0.4h-2.3
					c-0.2,0-0.4-0.2-0.4-0.4c0,0,0-0.1,0-0.1l3.6-13.8c0.5-2.1,2.1-2.2,3-2.2c0.9,0,2.5,0.2,3,2.2l3.6,13.8c0,0,0,0.1,0,0.1
					C570.1,474.9,569.9,475,569.7,475z M563.7,461.4c-0.1-0.3-0.1-0.4-0.4-0.4c-0.2,0-0.3,0.1-0.3,0.4l-1.6,6.6h3.9L563.7,461.4z"/>
				<path class="st0" d="M584.5,475h-2.2c-0.5,0-1,0-1.3-0.8l-4.9-10.7c-0.1-0.1-0.1-0.2-0.2-0.2c-0.1,0-0.1,0-0.1,0.2v11.1
					c0,0.2-0.2,0.4-0.4,0.4h-1.9c-0.2,0-0.4-0.2-0.4-0.4v-15.1c0-0.5,0.4-0.9,0.9-0.9h2.4c0.5,0,0.7,0.1,1,0.7l5.1,11.3
					c0,0.1,0.1,0.2,0.2,0.2c0,0,0.1-0.1,0.1-0.2V459c0-0.2,0.2-0.4,0.4-0.4h1.9c0.2,0,0.4,0.2,0.4,0.4v15.1
					C585.4,474.6,585,475,584.5,475z"/>
				<path class="st0" d="M601,475.2c-1.6,0-3.7-0.2-4.3-0.3c-0.4-0.1-0.6-0.2-0.6-0.7v-14.8c0-0.4,0.2-0.6,0.6-0.7
					c0.7-0.1,2.8-0.3,4.3-0.3c4.4,0,6.9,2.4,6.9,6.7v3.2C607.9,472.8,605.4,475.2,601,475.2z M604.9,465.2c0-3.3-1.7-4.2-3.9-4.2
					c-0.8,0-1.4,0-1.8,0.1v11.4c0.5,0,1,0.1,1.8,0.1c2.2,0,3.9-0.9,3.9-4.2V465.2z"/>
				<path class="st0" d="M621,474.9c-0.7,0.1-1.6,0.3-4.2,0.3c-2.8,0-5.1-0.8-5.1-4.5V463c0-3.7,2.2-4.5,5.1-4.5
					c2.6,0,3.5,0.2,4.2,0.3c0.3,0,0.4,0.2,0.4,0.5v1.4c0,0.2-0.2,0.4-0.4,0.4h-4.5c-1.3,0-1.7,0.4-1.7,1.9v2.4h5.9
					c0.2,0,0.4,0.2,0.4,0.4v1.6c0,0.2-0.2,0.4-0.4,0.4h-5.9v2.8c0,1.5,0.5,1.9,1.7,1.9h4.5c0.2,0,0.4,0.2,0.4,0.4v1.4
					C621.4,474.7,621.3,474.8,621,474.9z"/>
			</g>
			<g>
				<path class="st0" d="M643.6,475h-2.3c-0.2,0-0.4-0.2-0.4-0.4l-1-4.2h-5l-1,4.2c0,0.2-0.2,0.4-0.4,0.4H631
					c-0.2,0-0.4-0.2-0.4-0.4c0,0,0-0.1,0-0.1l3.6-13.8c0.5-2.1,2.1-2.2,3-2.2c0.9,0,2.5,0.2,3,2.2l3.6,13.8c0,0,0,0.1,0,0.1
					C644,474.9,643.8,475,643.6,475z M637.7,461.4c-0.1-0.3-0.1-0.4-0.3-0.4c-0.2,0-0.3,0.1-0.4,0.4l-1.6,6.6h3.9L637.7,461.4z"/>
			</g>
			<g>
				<path class="st0" d="M651.1,475.2c-1.6,0-2.8-0.2-3.9-0.4c-0.2,0-0.4-0.2-0.4-0.4v-1.6c0-0.2,0.2-0.4,0.4-0.4c0,0,0,0,0,0
					c0.9,0.1,3.1,0.2,3.9,0.2c2,0,2.5-0.7,2.5-2c0-0.9-0.4-1.3-1.9-2.2l-2.9-1.7c-2-1.2-2.6-2.5-2.6-4c0-2.4,1.4-4.2,5.5-4.2
					c1.4,0,3.5,0.2,4.2,0.4c0.2,0,0.4,0.2,0.4,0.4v1.6c0,0.2-0.2,0.4-0.4,0.4c0,0,0,0,0,0c-1.4-0.1-2.9-0.2-4.3-0.2
					c-1.6,0-2.3,0.6-2.3,1.6c0,0.7,0.4,1.2,1.8,2l2.6,1.5c2.4,1.3,3.1,2.8,3.1,4.5C656.9,472.8,655.5,475.2,651.1,475.2z"/>
				<path class="st0" d="M664.6,475.2c-1.6,0-2.8-0.2-3.9-0.4c-0.2,0-0.4-0.2-0.4-0.4v-1.6c0-0.2,0.2-0.4,0.4-0.4c0,0,0,0,0,0
					c0.9,0.1,3.1,0.2,3.9,0.2c2,0,2.5-0.7,2.5-2c0-0.9-0.4-1.3-1.9-2.2l-2.9-1.7c-2-1.2-2.6-2.5-2.6-4c0-2.4,1.4-4.2,5.5-4.2
					c1.4,0,3.5,0.2,4.2,0.4c0.2,0,0.4,0.2,0.4,0.4v1.6c0,0.2-0.2,0.4-0.4,0.4c0,0,0,0,0,0c-1.4-0.1-2.9-0.2-4.3-0.2
					c-1.6,0-2.3,0.6-2.3,1.6c0,0.7,0.4,1.2,1.8,2l2.6,1.5c2.4,1.3,3,2.8,3,4.5C670.4,472.8,669,475.2,664.6,475.2z"/>
				<path class="st0" d="M679.8,475.2c-3.6,0-6.2-2-6.2-6.9v-3c0-4.9,2.6-6.9,6.2-6.9c3.6,0,6.2,2,6.2,6.9v3
					C686.1,473.2,683.4,475.2,679.8,475.2z M683,465.3c0-2.9-1-4.2-3.2-4.2s-3.2,1.3-3.2,4.2v3c0,2.9,1,4.2,3.2,4.2s3.2-1.3,3.2-4.2
					V465.3z"/>
				<path class="st0" d="M699.1,474.8c-0.3,0.1-1.8,0.4-3.5,0.4c-2.6,0-6.2-1.3-6.2-6.7v-3.2c0-5.5,3.6-6.7,6.2-6.7
					c1.7,0,3.1,0.3,3.5,0.4c0.3,0.1,0.5,0.2,0.5,0.5v1.5c0,0.3-0.1,0.5-0.4,0.5c0,0,0,0,0,0c-0.8-0.1-2.3-0.2-3.4-0.2
					c-1.8,0-3.2,1-3.2,4.1v3.2c0,3.1,1.3,4.1,3.2,4.1c1.2,0,2.7-0.1,3.4-0.2c0,0,0,0,0,0c0.3,0,0.4,0.2,0.4,0.5v1.5
					C699.6,474.6,699.4,474.7,699.1,474.8z"/>
				<path class="st0" d="M705.8,475h-2.2c-0.2,0-0.4-0.2-0.4-0.4V459c0-0.2,0.2-0.4,0.4-0.4h2.2c0.2,0,0.4,0.2,0.4,0.4v15.5
					C706.3,474.8,706.1,475,705.8,475z"/>
				<path class="st0" d="M722.3,475h-2.3c-0.2,0-0.4-0.2-0.4-0.4l-1-4.2h-5l-1,4.2c0,0.2-0.2,0.4-0.4,0.4h-2.3
					c-0.2,0-0.4-0.2-0.4-0.4c0,0,0-0.1,0-0.1l3.6-13.8c0.5-2.1,2.1-2.2,3-2.2c0.9,0,2.5,0.2,3,2.2l3.6,13.8c0,0,0,0.1,0,0.1
					C722.6,474.9,722.5,475,722.3,475z M716.3,461.4c-0.1-0.3-0.1-0.4-0.3-0.4c-0.2,0-0.3,0.1-0.3,0.4l-1.6,6.6h3.9L716.3,461.4z"/>
				<path class="st0" d="M735.8,461.2h-3.8v13.4c0,0.2-0.2,0.4-0.4,0.4h-2.2c-0.2,0-0.4-0.2-0.4-0.4v-13.4H725
					c-0.2,0-0.4-0.2-0.4-0.4V459c0-0.2,0.2-0.4,0.4-0.4h10.7c0.2,0,0.4,0.2,0.4,0.4v1.7C736.2,461,736,461.2,735.8,461.2z"/>
				<path class="st0" d="M742,475h-2.2c-0.2,0-0.4-0.2-0.4-0.4V459c0-0.2,0.2-0.4,0.4-0.4h2.2c0.2,0,0.4,0.2,0.4,0.4v15.5
					C742.4,474.8,742.2,475,742,475z"/>
				<path class="st0" d="M755.9,474.9c-0.7,0.1-1.6,0.3-4.2,0.3c-2.8,0-5.1-0.8-5.1-4.5V463c0-3.7,2.2-4.5,5.1-4.5
					c2.6,0,3.5,0.2,4.2,0.3c0.3,0,0.4,0.2,0.4,0.5v1.4c0,0.2-0.2,0.4-0.4,0.4h-4.5c-1.3,0-1.7,0.4-1.7,1.9v2.4h5.9
					c0.2,0,0.4,0.2,0.4,0.4v1.6c0,0.2-0.2,0.4-0.4,0.4h-5.9v2.8c0,1.5,0.5,1.9,1.7,1.9h4.5c0.2,0,0.4,0.2,0.4,0.4v1.4
					C756.3,474.7,756.2,474.8,755.9,474.9z"/>
				<path class="st0" d="M772.7,475.2c-3.5,0-6-1.5-6-6.2V459c0-0.2,0.2-0.4,0.4-0.4h2.2c0.2,0,0.4,0.2,0.4,0.4v9.9
					c0,2.5,0.6,3.7,3,3.7c2.4,0,3-1.2,3-3.7V459c0-0.2,0.2-0.4,0.4-0.4h2.2c0.2,0,0.4,0.2,0.4,0.4v9.9
					C778.7,473.6,776.2,475.2,772.7,475.2z"/>
				<path class="st0" d="M794.3,475h-2.2c-0.5,0-1,0-1.3-0.8l-4.9-10.7c-0.1-0.1-0.1-0.2-0.2-0.2c-0.1,0-0.1,0-0.1,0.2v11.1
					c0,0.2-0.2,0.4-0.4,0.4h-1.9c-0.2,0-0.4-0.2-0.4-0.4v-15.1c0-0.5,0.4-0.9,0.9-0.9h2.4c0.5,0,0.7,0.1,1,0.7l5.1,11.3
					c0,0.1,0.1,0.2,0.2,0.2c0,0,0.1-0.1,0.1-0.2V459c0-0.2,0.2-0.4,0.4-0.4h1.9c0.2,0,0.4,0.2,0.4,0.4v15.1
					C795.2,474.6,794.8,475,794.3,475z"/>
				<path class="st0" d="M802.1,475h-2.2c-0.2,0-0.4-0.2-0.4-0.4V459c0-0.2,0.2-0.4,0.4-0.4h2.2c0.2,0,0.4,0.2,0.4,0.4v15.5
					C802.5,474.8,802.3,475,802.1,475z"/>
				<path class="st0" d="M819,459.1l-3.6,13.8c-0.5,2.1-2.1,2.2-3.1,2.2c-0.9,0-2.5-0.2-3-2.2l-3.6-13.8c0,0,0-0.1,0-0.1
					c0-0.2,0.2-0.4,0.4-0.4h2.3c0.2,0,0.4,0.2,0.4,0.4l3.2,13.3c0.1,0.3,0.1,0.4,0.3,0.4c0.2,0,0.3-0.1,0.4-0.4l3.2-13.3
					c0-0.2,0.2-0.4,0.4-0.4h2.3c0.2,0,0.4,0.2,0.4,0.4C819,459,819,459.1,819,459.1z"/>
				<path class="st0" d="M831.4,474.9c-0.7,0.1-1.6,0.3-4.2,0.3c-2.9,0-5.1-0.8-5.1-4.5V463c0-3.7,2.2-4.5,5.1-4.5
					c2.6,0,3.5,0.2,4.2,0.3c0.3,0,0.4,0.2,0.4,0.5v1.4c0,0.2-0.2,0.4-0.4,0.4h-4.5c-1.3,0-1.7,0.4-1.7,1.9v2.4h5.9
					c0.2,0,0.4,0.2,0.4,0.4v1.6c0,0.2-0.2,0.4-0.4,0.4h-5.9v2.8c0,1.5,0.5,1.9,1.7,1.9h4.5c0.2,0,0.4,0.2,0.4,0.4v1.4
					C831.8,474.7,831.7,474.8,831.4,474.9z"/>
				<path class="st0" d="M847.3,475h-2.7c-0.2,0-0.3-0.2-0.4-0.4l-3.2-5.9h-0.3c-0.6,0-1.4-0.1-2-0.1v6c0,0.2-0.2,0.4-0.4,0.4h-2.2
					c-0.2,0-0.4-0.2-0.4-0.4v-15.2c0-0.4,0.3-0.6,0.7-0.7c1.1-0.2,2.7-0.3,4.3-0.3c3.4,0,6.3,1.2,6.3,5v0.2c0,2.3-1.2,3.8-3,4.5
					l3.4,6.4c0,0.1,0,0.1,0,0.2C847.6,474.9,847.5,475,847.3,475z M844.1,463.4c0-1.7-1.1-2.4-3.3-2.4c-0.5,0-1.6,0-2,0.1v5
					c0.3,0,1.6,0.1,2,0.1c2.3,0,3.3-0.6,3.3-2.6V463.4z"/>
				<path class="st0" d="M855.2,475.2c-1.6,0-2.8-0.2-3.9-0.4c-0.2,0-0.4-0.2-0.4-0.4v-1.6c0-0.2,0.2-0.4,0.4-0.4c0,0,0,0,0,0
					c0.9,0.1,3.1,0.2,3.9,0.2c2,0,2.5-0.7,2.5-2c0-0.9-0.4-1.3-1.9-2.2l-2.9-1.7c-2-1.2-2.6-2.5-2.6-4c0-2.4,1.4-4.2,5.5-4.2
					c1.4,0,3.5,0.2,4.2,0.4c0.2,0,0.4,0.2,0.4,0.4v1.6c0,0.2-0.2,0.4-0.4,0.4c0,0,0,0,0,0c-1.4-0.1-2.9-0.2-4.3-0.2
					c-1.6,0-2.3,0.6-2.3,1.6c0,0.7,0.4,1.2,1.8,2l2.6,1.5c2.4,1.3,3.1,2.8,3.1,4.5C860.9,472.8,859.6,475.2,855.2,475.2z"/>
				<path class="st0" d="M867.2,475H865c-0.2,0-0.4-0.2-0.4-0.4V459c0-0.2,0.2-0.4,0.4-0.4h2.2c0.2,0,0.4,0.2,0.4,0.4v15.5
					C867.6,474.8,867.4,475,867.2,475z"/>
				<path class="st0" d="M881.9,461.2h-3.8v13.4c0,0.2-0.2,0.4-0.4,0.4h-2.2c-0.2,0-0.4-0.2-0.4-0.4v-13.4h-3.8
					c-0.2,0-0.4-0.2-0.4-0.4V459c0-0.2,0.2-0.4,0.4-0.4h10.7c0.2,0,0.4,0.2,0.4,0.4v1.7C882.4,461,882.2,461.2,881.9,461.2z"/>
				<path class="st0" d="M894.8,474.9c-0.7,0.1-1.6,0.3-4.2,0.3c-2.8,0-5.1-0.8-5.1-4.5V463c0-3.7,2.2-4.5,5.1-4.5
					c2.6,0,3.5,0.2,4.2,0.3c0.3,0,0.4,0.2,0.4,0.5v1.4c0,0.2-0.2,0.4-0.4,0.4h-4.5c-1.3,0-1.7,0.4-1.7,1.9v2.4h5.9
					c0.2,0,0.4,0.2,0.4,0.4v1.6c0,0.2-0.2,0.4-0.4,0.4h-5.9v2.8c0,1.5,0.5,1.9,1.7,1.9h4.5c0.2,0,0.4,0.2,0.4,0.4v1.4
					C895.2,474.7,895.1,474.8,894.8,474.9z"/>
				<path class="st0" d="M901.8,475h-2.2c-0.2,0-0.4-0.2-0.4-0.4V459c0-0.2,0.2-0.4,0.4-0.4h2.2c0.2,0,0.4,0.2,0.4,0.4v15.5
					C902.2,474.8,902,475,901.8,475z"/>
				<path class="st0" d="M916.6,461.2h-3.8v13.4c0,0.2-0.2,0.4-0.4,0.4h-2.2c-0.2,0-0.4-0.2-0.4-0.4v-13.4h-3.8
					c-0.2,0-0.4-0.2-0.4-0.4V459c0-0.2,0.2-0.4,0.4-0.4h10.7c0.2,0,0.4,0.2,0.4,0.4v1.7C917,461,916.8,461.2,916.6,461.2z"/>
				<path class="st0" d="M936.8,474.8c-1.1,0.2-2.5,0.4-4.8,0.4c-2.4,0-5.9-1.6-5.9-6.8v-3.2c0-5.2,3.3-6.8,5.9-6.8
					c2.1,0,4,0.3,4.7,0.4c0.3,0.1,0.4,0.2,0.4,0.5v1.5c0,0.3-0.1,0.5-0.4,0.5c0,0,0,0-0.1,0c-1-0.1-2.5-0.2-4.6-0.2
					c-1.5,0-2.9,1-2.9,4.2v3.2c0,3.1,1.5,4.1,2.8,4.1c0.8,0,1.5,0,2.2-0.1v-5.6c0-0.2,0.2-0.4,0.4-0.4h2.2c0.2,0,0.4,0.2,0.4,0.4
					v7.4C937.2,474.6,937.1,474.7,936.8,474.8z"/>
				<path class="st0" d="M950.7,474.9c-0.7,0.1-1.6,0.3-4.2,0.3c-2.8,0-5.1-0.8-5.1-4.5V463c0-3.7,2.2-4.5,5.1-4.5
					c2.6,0,3.5,0.2,4.2,0.3c0.3,0,0.4,0.2,0.4,0.5v1.4c0,0.2-0.2,0.4-0.4,0.4h-4.5c-1.3,0-1.7,0.4-1.7,1.9v2.4h5.9
					c0.2,0,0.4,0.2,0.4,0.4v1.6c0,0.2-0.2,0.4-0.4,0.4h-5.9v2.8c0,1.5,0.5,1.9,1.7,1.9h4.5c0.2,0,0.4,0.2,0.4,0.4v1.4
					C951.2,474.7,951.1,474.8,950.7,474.9z"/>
				<path class="st0" d="M966.6,475h-2.2c-0.5,0-1,0-1.3-0.8l-4.9-10.7c-0.1-0.1-0.1-0.2-0.2-0.2c-0.1,0-0.1,0-0.1,0.2v11.1
					c0,0.2-0.2,0.4-0.4,0.4h-1.9c-0.2,0-0.4-0.2-0.4-0.4v-15.1c0-0.5,0.4-0.9,0.9-0.9h2.4c0.5,0,0.7,0.1,1,0.7l5.1,11.3
					c0,0.1,0.1,0.2,0.2,0.2c0,0,0.1-0.1,0.1-0.2V459c0-0.2,0.2-0.4,0.4-0.4h1.9c0.2,0,0.4,0.2,0.4,0.4v15.1
					C967.4,474.6,967,475,966.6,475z"/>
				<path class="st0" d="M981.8,461.2h-3.8v13.4c0,0.2-0.2,0.4-0.4,0.4h-2.2c-0.2,0-0.4-0.2-0.4-0.4v-13.4h-3.8
					c-0.2,0-0.4-0.2-0.4-0.4V459c0-0.2,0.2-0.4,0.4-0.4h10.7c0.2,0,0.4,0.2,0.4,0.4v1.7C982.2,461,982,461.2,981.8,461.2z"/>
			</g>
		</g>
	</g>
</g>
</svg>
